# xmcd CD database file
# Copyright (C) 1993-1998 Ti Kan
#
# Track frame offsets:
#	150
#	13500
#	26385
#	39862
#	53257
#	69037
#	82080
#	96492
#	109752
#	123900
#	135395
#	149262
#	160815
#	173437
#	188262
#	200930
#	214597
#	227262
#	238130
#	251835
#
# Disc length: 3541 seconds
#
# Revision: 1
# Processed by: cddbd v1.4b41PL1 Copyright (c) Steve Scherf et al.
# Submitted via: CDValet v3.31 - Copyright (c) 1997 Greg Leichner
#
DISCID=f80dd314
DTITLE=Little Walter - Blues With A Feeling - Disk 1
DYEAR=1900
DGENRE=
TTITLE0=Juke (alternate)
TTITLE1=Can't Hold Out Much Longer (alternate)
TTITLE2=Blue Midnight (alternate)
TTITLE3=Fast Boogie (alternate)
TTITLE4=Driftin'
TTITLE5=Tonight With A Fool
TTITLE6=That's It
TTITLE7=Blues With A Feeling (alternate)
TTITLE8=My Kind Of Baby
TTITLE9=Last Boogie
TTITLE10=Come Back Baby
TTITLE11=I Love You So (Oh Baby)
TTITLE12=Big Leg Mama
TTITLE13=Mercy Babe a/k/a My Babe
TTITLE14=Thunderbird
TTITLE15=Crazy For My Baby
TTITLE16=Can't Stop Lovin' You
TTITLE17=Who
TTITLE18=Flying Saucer
TTITLE19=Teenage Beat
EXTD=
EXTT0=
EXTT1=
EXTT2=
EXTT3=
EXTT4=
EXTT5=
EXTT6=
EXTT7=
EXTT8=
EXTT9=
EXTT10=
EXTT11=
EXTT12=
EXTT13=
EXTT14=
EXTT15=
EXTT16=
EXTT17=
EXTT18=
EXTT19=
PLAYORDER=
